G04 Layer_Physical_Order=1*
G04 Layer_Color=255*
%FSLAX44Y44*%
%MOMM*%
G71*
G01*
G75*
%ADD10C,0.2540*%
%ADD11C,1.5000*%
G36*
X510540Y641350D02*
X384810D01*
Y645641D01*
X386080Y646267D01*
X387367Y645280D01*
X389809Y644268D01*
X391160Y644091D01*
Y654050D01*
X392430D01*
Y655320D01*
X402389D01*
X402212Y656671D01*
X401200Y659113D01*
X399591Y661211D01*
X397493Y662820D01*
X396315Y663308D01*
Y670192D01*
X397493Y670680D01*
X399591Y672289D01*
X401200Y674387D01*
X402212Y676829D01*
X402389Y678180D01*
X392430D01*
Y680720D01*
X402389D01*
X402212Y682071D01*
X401200Y684513D01*
X399591Y686611D01*
X397493Y688220D01*
X396315Y688708D01*
Y695592D01*
X397493Y696080D01*
X399591Y697689D01*
X401200Y699787D01*
X402212Y702229D01*
X402389Y703580D01*
X392430D01*
Y706120D01*
X402389D01*
X402212Y707471D01*
X401200Y709913D01*
X399591Y712011D01*
X397493Y713620D01*
X396315Y714108D01*
Y720992D01*
X397493Y721480D01*
X399591Y723089D01*
X401200Y725187D01*
X402212Y727629D01*
X402389Y728980D01*
X392430D01*
Y731520D01*
X402389D01*
X402212Y732871D01*
X401200Y735313D01*
X399591Y737411D01*
X397493Y739020D01*
X396315Y739508D01*
Y746392D01*
X397493Y746880D01*
X399591Y748489D01*
X401200Y750587D01*
X402212Y753029D01*
X402389Y754380D01*
X392430D01*
Y756920D01*
X402389D01*
X402212Y758271D01*
X401200Y760713D01*
X399591Y762811D01*
X397493Y764420D01*
X396315Y764908D01*
Y771792D01*
X397493Y772280D01*
X399591Y773889D01*
X401200Y775987D01*
X402212Y778429D01*
X402389Y779780D01*
X392430D01*
Y782320D01*
X402389D01*
X402212Y783671D01*
X401200Y786113D01*
X399591Y788211D01*
X397493Y789820D01*
X396315Y790308D01*
Y797192D01*
X397493Y797680D01*
X399591Y799289D01*
X401200Y801387D01*
X402212Y803829D01*
X402389Y805180D01*
X392430D01*
Y807720D01*
X402389D01*
X402212Y809071D01*
X401200Y811513D01*
X399591Y813611D01*
X397493Y815220D01*
X396315Y815708D01*
Y822592D01*
X397493Y823080D01*
X399591Y824689D01*
X401200Y826787D01*
X402212Y829229D01*
X402389Y830580D01*
X392430D01*
Y833120D01*
X402389D01*
X402212Y834471D01*
X401200Y836913D01*
X399591Y839011D01*
X397493Y840620D01*
X396315Y841108D01*
Y847992D01*
X397493Y848480D01*
X399591Y850089D01*
X401200Y852187D01*
X402212Y854629D01*
X402389Y855980D01*
X392430D01*
Y857250D01*
X391160D01*
Y867209D01*
X389809Y867032D01*
X387367Y866020D01*
X386080Y865033D01*
X384810Y865659D01*
Y874241D01*
X386080Y874867D01*
X387367Y873880D01*
X389809Y872868D01*
X392430Y872523D01*
X395051Y872868D01*
X397493Y873880D01*
X399591Y875489D01*
X401200Y877587D01*
X402212Y880029D01*
X402557Y882650D01*
X402212Y885271D01*
X401200Y887713D01*
X399591Y889811D01*
X397493Y891420D01*
X395051Y892432D01*
X392430Y892777D01*
X389809Y892432D01*
X387367Y891420D01*
X386080Y890433D01*
X384810Y891059D01*
Y897890D01*
X510540D01*
Y641350D01*
D02*
G37*
%LPC*%
G36*
X472440Y737870D02*
X463751D01*
X463928Y736519D01*
X464940Y734077D01*
X466549Y731979D01*
X468647Y730370D01*
X471089Y729358D01*
X472440Y729181D01*
Y737870D01*
D02*
G37*
G36*
X499110Y749267D02*
X496489Y748922D01*
X494047Y747910D01*
X491949Y746301D01*
X490340Y744203D01*
X489328Y741761D01*
X488983Y739140D01*
X489328Y736519D01*
X490340Y734077D01*
X491949Y731979D01*
X494047Y730370D01*
X496489Y729358D01*
X499110Y729013D01*
X501731Y729358D01*
X504173Y730370D01*
X506271Y731979D01*
X507880Y734077D01*
X508892Y736519D01*
X509237Y739140D01*
X508892Y741761D01*
X507880Y744203D01*
X506271Y746301D01*
X504173Y747910D01*
X501731Y748922D01*
X499110Y749267D01*
D02*
G37*
G36*
X473710Y774667D02*
X471089Y774322D01*
X468647Y773310D01*
X466549Y771701D01*
X464940Y769603D01*
X463928Y767161D01*
X463583Y764540D01*
X463928Y761919D01*
X464940Y759477D01*
X466549Y757379D01*
X466988Y757042D01*
X467071Y755775D01*
X465751Y754455D01*
X463550D01*
X462063Y754159D01*
X460803Y753317D01*
X421630Y714143D01*
X420451Y714632D01*
X417830Y714977D01*
X415209Y714632D01*
X412767Y713620D01*
X410669Y712011D01*
X409060Y709913D01*
X408048Y707471D01*
X407703Y704850D01*
X408048Y702229D01*
X409060Y699787D01*
X410669Y697689D01*
X412767Y696080D01*
X415209Y695068D01*
X417830Y694723D01*
X420451Y695068D01*
X422893Y696080D01*
X424991Y697689D01*
X426600Y699787D01*
X427612Y702229D01*
X427957Y704850D01*
X427612Y707471D01*
X427123Y708650D01*
X464267Y745794D01*
X464527Y745751D01*
X465071Y744374D01*
X464940Y744203D01*
X463928Y741761D01*
X463751Y740410D01*
X473710D01*
X483669D01*
X483492Y741761D01*
X482480Y744203D01*
X480871Y746301D01*
X478773Y747910D01*
X476331Y748922D01*
X473710Y749267D01*
X473181Y749197D01*
X472620Y750336D01*
X476457Y754173D01*
X477046Y755054D01*
X478773Y755770D01*
X480871Y757379D01*
X482480Y759477D01*
X483492Y761919D01*
X483837Y764540D01*
X483492Y767161D01*
X482480Y769603D01*
X480871Y771701D01*
X478773Y773310D01*
X476331Y774322D01*
X473710Y774667D01*
D02*
G37*
G36*
X483669Y737870D02*
X474980D01*
Y729181D01*
X476331Y729358D01*
X478773Y730370D01*
X480871Y731979D01*
X482480Y734077D01*
X483492Y736519D01*
X483669Y737870D01*
D02*
G37*
G36*
X402389Y652780D02*
X393700D01*
Y644091D01*
X395051Y644268D01*
X397493Y645280D01*
X399591Y646889D01*
X401200Y648987D01*
X402212Y651429D01*
X402389Y652780D01*
D02*
G37*
G36*
X417830Y664177D02*
X415209Y663832D01*
X412767Y662820D01*
X410669Y661211D01*
X409060Y659113D01*
X408048Y656671D01*
X407703Y654050D01*
X408048Y651429D01*
X409060Y648987D01*
X410669Y646889D01*
X412767Y645280D01*
X415209Y644268D01*
X417830Y643923D01*
X420451Y644268D01*
X422893Y645280D01*
X424991Y646889D01*
X426600Y648987D01*
X427612Y651429D01*
X427957Y654050D01*
X427612Y656671D01*
X426600Y659113D01*
X424991Y661211D01*
X422893Y662820D01*
X420451Y663832D01*
X417830Y664177D01*
D02*
G37*
G36*
Y740377D02*
X415209Y740032D01*
X412767Y739020D01*
X410669Y737411D01*
X409060Y735313D01*
X408048Y732871D01*
X407703Y730250D01*
X408048Y727629D01*
X409060Y725187D01*
X410669Y723089D01*
X412767Y721480D01*
X415209Y720468D01*
X417830Y720123D01*
X420451Y720468D01*
X422893Y721480D01*
X424991Y723089D01*
X426600Y725187D01*
X427612Y727629D01*
X427957Y730250D01*
X427612Y732871D01*
X426600Y735313D01*
X424991Y737411D01*
X422893Y739020D01*
X420451Y740032D01*
X417830Y740377D01*
D02*
G37*
G36*
Y689577D02*
X415209Y689232D01*
X412767Y688220D01*
X410669Y686611D01*
X409060Y684513D01*
X408048Y682071D01*
X407703Y679450D01*
X408048Y676829D01*
X409060Y674387D01*
X410669Y672289D01*
X412767Y670680D01*
X415209Y669668D01*
X417830Y669323D01*
X420451Y669668D01*
X422893Y670680D01*
X424991Y672289D01*
X426600Y674387D01*
X427612Y676829D01*
X427957Y679450D01*
X427612Y682071D01*
X426600Y684513D01*
X424991Y686611D01*
X422893Y688220D01*
X420451Y689232D01*
X417830Y689577D01*
D02*
G37*
G36*
Y765777D02*
X415209Y765432D01*
X412767Y764420D01*
X410669Y762811D01*
X409060Y760713D01*
X408048Y758271D01*
X407703Y755650D01*
X408048Y753029D01*
X409060Y750587D01*
X410669Y748489D01*
X412767Y746880D01*
X415209Y745868D01*
X417830Y745523D01*
X420451Y745868D01*
X422893Y746880D01*
X424991Y748489D01*
X426600Y750587D01*
X427612Y753029D01*
X427957Y755650D01*
X427612Y758271D01*
X426600Y760713D01*
X424991Y762811D01*
X422893Y764420D01*
X420451Y765432D01*
X417830Y765777D01*
D02*
G37*
G36*
Y841977D02*
X415209Y841632D01*
X412767Y840620D01*
X410669Y839011D01*
X409060Y836913D01*
X408048Y834471D01*
X407703Y831850D01*
X408048Y829229D01*
X409060Y826787D01*
X410669Y824689D01*
X412767Y823080D01*
X415209Y822068D01*
X417830Y821723D01*
X420451Y822068D01*
X422893Y823080D01*
X424991Y824689D01*
X426600Y826787D01*
X427612Y829229D01*
X427957Y831850D01*
X427612Y834471D01*
X426600Y836913D01*
X424991Y839011D01*
X422893Y840620D01*
X420451Y841632D01*
X417830Y841977D01*
D02*
G37*
G36*
Y816577D02*
X415209Y816232D01*
X412767Y815220D01*
X410669Y813611D01*
X409060Y811513D01*
X408048Y809071D01*
X407703Y806450D01*
X408048Y803829D01*
X409060Y801387D01*
X410669Y799289D01*
X412767Y797680D01*
X415209Y796668D01*
X417830Y796323D01*
X420451Y796668D01*
X422893Y797680D01*
X424991Y799289D01*
X426600Y801387D01*
X427612Y803829D01*
X427957Y806450D01*
X427612Y809071D01*
X426600Y811513D01*
X424991Y813611D01*
X422893Y815220D01*
X420451Y816232D01*
X417830Y816577D01*
D02*
G37*
G36*
X393700Y867209D02*
Y858520D01*
X402389D01*
X402212Y859871D01*
X401200Y862313D01*
X399591Y864411D01*
X397493Y866020D01*
X395051Y867032D01*
X393700Y867209D01*
D02*
G37*
G36*
X417830Y867377D02*
X415209Y867032D01*
X412767Y866020D01*
X410669Y864411D01*
X409060Y862313D01*
X408048Y859871D01*
X407703Y857250D01*
X408048Y854629D01*
X409060Y852187D01*
X410669Y850089D01*
X412767Y848480D01*
X415209Y847468D01*
X417830Y847123D01*
X420451Y847468D01*
X422893Y848480D01*
X424991Y850089D01*
X426600Y852187D01*
X427612Y854629D01*
X427957Y857250D01*
X427612Y859871D01*
X426600Y862313D01*
X424991Y864411D01*
X422893Y866020D01*
X420451Y867032D01*
X417830Y867377D01*
D02*
G37*
G36*
Y791177D02*
X415209Y790832D01*
X412767Y789820D01*
X410669Y788211D01*
X409060Y786113D01*
X408048Y783671D01*
X407703Y781050D01*
X408048Y778429D01*
X409060Y775987D01*
X410669Y773889D01*
X412767Y772280D01*
X415209Y771268D01*
X417830Y770923D01*
X420451Y771268D01*
X422893Y772280D01*
X424991Y773889D01*
X426600Y775987D01*
X427612Y778429D01*
X427957Y781050D01*
X427612Y783671D01*
X426600Y786113D01*
X424991Y788211D01*
X422893Y789820D01*
X420451Y790832D01*
X417830Y791177D01*
D02*
G37*
G36*
X499110Y774667D02*
X496489Y774322D01*
X494047Y773310D01*
X491949Y771701D01*
X490340Y769603D01*
X489328Y767161D01*
X488983Y764540D01*
X489328Y761919D01*
X490340Y759477D01*
X491949Y757379D01*
X494047Y755770D01*
X496489Y754758D01*
X499110Y754413D01*
X501731Y754758D01*
X504173Y755770D01*
X506271Y757379D01*
X507880Y759477D01*
X508892Y761919D01*
X509237Y764540D01*
X508892Y767161D01*
X507880Y769603D01*
X506271Y771701D01*
X504173Y773310D01*
X501731Y774322D01*
X499110Y774667D01*
D02*
G37*
G36*
Y800067D02*
X496489Y799722D01*
X494047Y798710D01*
X491949Y797101D01*
X490340Y795003D01*
X489328Y792561D01*
X488983Y789940D01*
X489328Y787319D01*
X490340Y784877D01*
X491949Y782779D01*
X494047Y781170D01*
X496489Y780158D01*
X499110Y779813D01*
X501731Y780158D01*
X504173Y781170D01*
X506271Y782779D01*
X507880Y784877D01*
X508892Y787319D01*
X509237Y789940D01*
X508892Y792561D01*
X507880Y795003D01*
X506271Y797101D01*
X504173Y798710D01*
X501731Y799722D01*
X499110Y800067D01*
D02*
G37*
G36*
X417830Y892777D02*
X415209Y892432D01*
X412767Y891420D01*
X410669Y889811D01*
X409060Y887713D01*
X408048Y885271D01*
X407703Y882650D01*
X408048Y880029D01*
X409060Y877587D01*
X410669Y875489D01*
X412767Y873880D01*
X415209Y872868D01*
X417830Y872523D01*
X420451Y872868D01*
X421630Y873357D01*
X469825Y825161D01*
Y799198D01*
X468647Y798710D01*
X466549Y797101D01*
X464940Y795003D01*
X463928Y792561D01*
X463583Y789940D01*
X463928Y787319D01*
X464940Y784877D01*
X466549Y782779D01*
X468647Y781170D01*
X471089Y780158D01*
X473710Y779813D01*
X476331Y780158D01*
X478773Y781170D01*
X480871Y782779D01*
X482480Y784877D01*
X483492Y787319D01*
X483837Y789940D01*
X483492Y792561D01*
X482480Y795003D01*
X480871Y797101D01*
X478773Y798710D01*
X477595Y799198D01*
Y826770D01*
X477299Y828257D01*
X476457Y829517D01*
X427123Y878850D01*
X427612Y880029D01*
X427957Y882650D01*
X427612Y885271D01*
X426600Y887713D01*
X424991Y889811D01*
X422893Y891420D01*
X420451Y892432D01*
X417830Y892777D01*
D02*
G37*
%LPD*%
D10*
Y882650D02*
X473710Y826770D01*
X392430Y831850D02*
Y857250D01*
Y654050D02*
Y679450D01*
Y704850D01*
Y730250D01*
Y755650D01*
Y806450D02*
Y831850D01*
Y755650D02*
Y781050D01*
Y806450D01*
X473710Y756920D02*
Y764540D01*
X467360Y750570D02*
X473710Y756920D01*
X463550Y750570D02*
X467360D01*
X417830Y704850D02*
X463550Y750570D01*
X473710Y789940D02*
Y826770D01*
D11*
X499110Y739140D02*
D03*
X473710D02*
D03*
Y789940D02*
D03*
X499110D02*
D03*
Y764540D02*
D03*
X473710D02*
D03*
X417830Y781050D02*
D03*
Y806450D02*
D03*
Y730250D02*
D03*
Y755650D02*
D03*
Y857250D02*
D03*
Y882650D02*
D03*
Y831850D02*
D03*
Y704850D02*
D03*
Y679450D02*
D03*
X392430Y730250D02*
D03*
X417830Y654050D02*
D03*
X392430Y882650D02*
D03*
Y831850D02*
D03*
Y857250D02*
D03*
Y781050D02*
D03*
Y806450D02*
D03*
Y755650D02*
D03*
Y679450D02*
D03*
Y704850D02*
D03*
Y654050D02*
D03*
M02*
