G04 Layer_Color=65535*
%FSLAX44Y44*%
%MOMM*%
G71*
G01*
G75*
%ADD10C,0.2540*%
%ADD12C,0.1000*%
G36*
X479307Y686689D02*
Y686535D01*
Y686380D01*
X479462D01*
Y686226D01*
Y686072D01*
Y685918D01*
Y685764D01*
Y685610D01*
Y685456D01*
X479616D01*
Y685302D01*
Y685147D01*
Y684993D01*
Y684839D01*
Y684685D01*
Y684531D01*
Y684377D01*
X479770D01*
Y684223D01*
Y684069D01*
Y683914D01*
Y683760D01*
Y683606D01*
Y683452D01*
X479924D01*
Y683298D01*
Y683144D01*
Y682990D01*
Y682835D01*
Y682681D01*
Y682527D01*
X480078D01*
Y682373D01*
Y682219D01*
Y682065D01*
Y681911D01*
Y681757D01*
X480232D01*
Y681602D01*
Y681448D01*
Y681294D01*
Y681140D01*
Y680986D01*
X480386D01*
Y680832D01*
Y680678D01*
X480541D01*
Y680524D01*
Y680369D01*
Y680215D01*
Y680061D01*
Y679907D01*
X480695D01*
Y679753D01*
Y679599D01*
Y679445D01*
Y679290D01*
Y679136D01*
X480849D01*
Y678982D01*
X481003D01*
Y678828D01*
X481157D01*
Y678674D01*
X481619D01*
Y678520D01*
X482082D01*
Y678366D01*
X482544D01*
Y678212D01*
X483007D01*
Y678057D01*
X483315D01*
Y677903D01*
X483469D01*
Y677749D01*
X483777D01*
Y677595D01*
X484086D01*
Y677441D01*
X484548D01*
Y677287D01*
X485010D01*
Y677133D01*
X485473D01*
Y676979D01*
X485935D01*
Y676824D01*
X486860D01*
Y676979D01*
X487168D01*
Y677133D01*
X487322D01*
Y677287D01*
X487630D01*
Y677441D01*
X487939D01*
Y677595D01*
X488093D01*
Y677749D01*
X488247D01*
Y677903D01*
X488555D01*
Y678057D01*
X488709D01*
Y678212D01*
X488863D01*
Y678366D01*
X489172D01*
Y678520D01*
X489480D01*
Y678674D01*
X489634D01*
Y678828D01*
X489788D01*
Y678982D01*
X489942D01*
Y679136D01*
X490251D01*
Y679290D01*
X490559D01*
Y679445D01*
X490713D01*
Y679599D01*
X491021D01*
Y679753D01*
X491175D01*
Y679907D01*
X491484D01*
Y680061D01*
X491638D01*
Y680215D01*
X491792D01*
Y680369D01*
X491946D01*
Y680524D01*
X492254D01*
Y680678D01*
X492563D01*
Y680832D01*
X492717D01*
Y680986D01*
X493333D01*
Y680832D01*
X493487D01*
Y680678D01*
X493642D01*
Y680524D01*
X493796D01*
Y680369D01*
X493950D01*
Y680215D01*
X494104D01*
Y680061D01*
X494258D01*
Y679907D01*
X494412D01*
Y679753D01*
X494566D01*
Y679599D01*
X494720D01*
Y679445D01*
X494875D01*
Y679290D01*
X495029D01*
Y679136D01*
X495183D01*
Y678982D01*
X495337D01*
Y678828D01*
X495491D01*
Y678674D01*
X495645D01*
Y678520D01*
X495799D01*
Y678366D01*
X495953D01*
Y678212D01*
X496108D01*
Y678057D01*
X496262D01*
Y677903D01*
X496416D01*
Y677749D01*
X496570D01*
Y677595D01*
X496724D01*
Y677441D01*
X496878D01*
Y677287D01*
X497032D01*
Y677133D01*
X497187D01*
Y676979D01*
X497341D01*
Y676824D01*
X497495D01*
Y676670D01*
X497649D01*
Y676516D01*
X497803D01*
Y676362D01*
X497957D01*
Y676208D01*
X498111D01*
Y676054D01*
X498265D01*
Y675900D01*
X498420D01*
Y675745D01*
Y675591D01*
X498265D01*
Y675437D01*
X498111D01*
Y675283D01*
X497957D01*
Y675129D01*
Y674975D01*
X497803D01*
Y674821D01*
Y674667D01*
X497649D01*
Y674512D01*
Y674358D01*
X497495D01*
Y674204D01*
X497341D01*
Y674050D01*
Y673896D01*
X497187D01*
Y673742D01*
X497032D01*
Y673588D01*
X496878D01*
Y673434D01*
Y673279D01*
X496724D01*
Y673125D01*
X496570D01*
Y672971D01*
Y672817D01*
X496416D01*
Y672663D01*
X496262D01*
Y672509D01*
Y672355D01*
X496108D01*
Y672200D01*
X495953D01*
Y672046D01*
Y671892D01*
X495799D01*
Y671738D01*
X495645D01*
Y671584D01*
X495491D01*
Y671430D01*
X495337D01*
Y671276D01*
Y671122D01*
X495183D01*
Y670967D01*
Y670813D01*
X495029D01*
Y670659D01*
X494875D01*
Y670505D01*
Y670351D01*
X494720D01*
Y670197D01*
X494566D01*
Y670043D01*
Y669888D01*
X494412D01*
Y669734D01*
X494258D01*
Y669580D01*
X494104D01*
Y669426D01*
Y669272D01*
Y669118D01*
Y668964D01*
Y668810D01*
X494258D01*
Y668655D01*
Y668501D01*
X494412D01*
Y668347D01*
X494566D01*
Y668193D01*
Y668039D01*
Y667885D01*
X494720D01*
Y667731D01*
Y667577D01*
Y667422D01*
X494875D01*
Y667268D01*
Y667114D01*
X495029D01*
Y666960D01*
Y666806D01*
Y666652D01*
X495183D01*
Y666498D01*
Y666344D01*
X495337D01*
Y666189D01*
Y666035D01*
Y665881D01*
X495491D01*
Y665727D01*
Y665573D01*
X495645D01*
Y665419D01*
X495799D01*
Y665265D01*
Y665110D01*
X495953D01*
Y664956D01*
Y664802D01*
X496108D01*
Y664648D01*
Y664494D01*
Y664340D01*
X496262D01*
Y664186D01*
Y664032D01*
Y663877D01*
X496416D01*
Y663723D01*
Y663569D01*
X496570D01*
Y663415D01*
X496724D01*
Y663261D01*
X497495D01*
Y663107D01*
X498420D01*
Y662953D01*
X499190D01*
Y662798D01*
X499807D01*
Y662644D01*
X500732D01*
Y662490D01*
X501656D01*
Y662336D01*
X501965D01*
Y662182D01*
X502889D01*
Y662028D01*
X503968D01*
Y661874D01*
X504122D01*
Y661720D01*
Y661565D01*
Y661411D01*
Y661257D01*
Y661103D01*
Y660949D01*
Y660795D01*
Y660641D01*
Y660487D01*
Y660332D01*
Y660178D01*
Y660024D01*
Y659870D01*
Y659716D01*
Y659562D01*
Y659408D01*
Y659253D01*
Y659099D01*
Y658945D01*
Y658791D01*
Y658637D01*
Y658483D01*
Y658329D01*
Y658175D01*
Y658020D01*
Y657866D01*
Y657712D01*
Y657558D01*
Y657404D01*
Y657250D01*
Y657096D01*
Y656942D01*
Y656787D01*
Y656633D01*
Y656479D01*
Y656325D01*
Y656171D01*
Y656017D01*
Y655863D01*
Y655708D01*
Y655554D01*
Y655400D01*
Y655246D01*
Y655092D01*
Y654938D01*
Y654784D01*
Y654630D01*
Y654475D01*
Y654321D01*
X503660D01*
Y654167D01*
X502889D01*
Y654013D01*
X502119D01*
Y653859D01*
X501194D01*
Y653705D01*
X500115D01*
Y653551D01*
X499961D01*
Y653397D01*
X499807D01*
Y653551D01*
X499653D01*
Y653397D01*
X499036D01*
Y653242D01*
X498111D01*
Y653088D01*
X497187D01*
Y652934D01*
X496724D01*
Y652780D01*
X496570D01*
Y652626D01*
Y652472D01*
Y652318D01*
X496416D01*
Y652163D01*
Y652009D01*
X496262D01*
Y651855D01*
Y651701D01*
Y651547D01*
X496108D01*
Y651393D01*
Y651239D01*
Y651085D01*
X495953D01*
Y650930D01*
Y650776D01*
Y650622D01*
X495799D01*
Y650468D01*
Y650314D01*
Y650160D01*
X495491D01*
Y650006D01*
Y649852D01*
Y649697D01*
X495337D01*
Y649543D01*
Y649389D01*
Y649235D01*
X495183D01*
Y649081D01*
Y648927D01*
X495029D01*
Y648773D01*
Y648618D01*
Y648464D01*
X494875D01*
Y648310D01*
Y648156D01*
X494720D01*
Y648002D01*
Y647848D01*
Y647694D01*
X494566D01*
Y647540D01*
Y647385D01*
Y647231D01*
X494412D01*
Y647077D01*
Y646923D01*
X494258D01*
Y646769D01*
Y646615D01*
X494412D01*
Y646461D01*
Y646307D01*
X494566D01*
Y646152D01*
X494720D01*
Y645998D01*
Y645844D01*
X494875D01*
Y645690D01*
X495029D01*
Y645536D01*
Y645382D01*
X495183D01*
Y645228D01*
X495337D01*
Y645073D01*
Y644919D01*
X495491D01*
Y644765D01*
X495645D01*
Y644611D01*
X495799D01*
Y644457D01*
X495953D01*
Y644303D01*
Y644149D01*
X496108D01*
Y643995D01*
Y643840D01*
X496262D01*
Y643686D01*
X496416D01*
Y643532D01*
Y643378D01*
X496570D01*
Y643224D01*
Y643070D01*
X496724D01*
Y642916D01*
X496878D01*
Y642762D01*
Y642607D01*
X497187D01*
Y642453D01*
Y642299D01*
X497341D01*
Y642145D01*
X497495D01*
Y641991D01*
Y641837D01*
X497649D01*
Y641683D01*
Y641528D01*
X497803D01*
Y641374D01*
X497957D01*
Y641220D01*
X498111D01*
Y641066D01*
Y640912D01*
X498265D01*
Y640758D01*
X498420D01*
Y640604D01*
Y640450D01*
Y640295D01*
X498265D01*
Y640141D01*
X498111D01*
Y639987D01*
X497957D01*
Y639833D01*
X497803D01*
Y639679D01*
X497649D01*
Y639525D01*
X497495D01*
Y639371D01*
X497341D01*
Y639217D01*
X497187D01*
Y639062D01*
X497032D01*
Y638908D01*
X496878D01*
Y638754D01*
X496724D01*
Y638600D01*
X496570D01*
Y638446D01*
X496416D01*
Y638292D01*
X496262D01*
Y638138D01*
X496108D01*
Y637984D01*
X495953D01*
Y637829D01*
X495799D01*
Y637675D01*
X495645D01*
Y637521D01*
X495491D01*
Y637367D01*
X495337D01*
Y637213D01*
X495183D01*
Y637059D01*
X495029D01*
Y636905D01*
X494875D01*
Y636750D01*
X494720D01*
Y636596D01*
X494566D01*
Y636442D01*
X494412D01*
Y636288D01*
X494258D01*
Y636134D01*
X494104D01*
Y635980D01*
X493950D01*
Y635826D01*
X493796D01*
Y635672D01*
X493642D01*
Y635517D01*
X493487D01*
Y635363D01*
X493333D01*
Y635209D01*
X492871D01*
Y635363D01*
X492563D01*
Y635517D01*
X492408D01*
Y635672D01*
X492254D01*
Y635826D01*
X492100D01*
Y635980D01*
X491792D01*
Y636134D01*
X491484D01*
Y636288D01*
X491330D01*
Y636442D01*
X491021D01*
Y636596D01*
X490713D01*
Y636750D01*
X490559D01*
Y636905D01*
X490405D01*
Y637059D01*
X490251D01*
Y637213D01*
X489942D01*
Y637367D01*
X489788D01*
Y637521D01*
X489480D01*
Y637675D01*
X489326D01*
Y637829D01*
X489018D01*
Y637984D01*
X488863D01*
Y638138D01*
X488555D01*
Y638292D01*
X488401D01*
Y638446D01*
X488093D01*
Y638600D01*
X487939D01*
Y638754D01*
X487630D01*
Y638908D01*
X487476D01*
Y639062D01*
X486552D01*
Y638908D01*
X486243D01*
Y638754D01*
X485935D01*
Y638600D01*
X485473D01*
Y638446D01*
X485164D01*
Y638292D01*
X485010D01*
Y638138D01*
X484702D01*
Y637984D01*
X484394D01*
Y637829D01*
X483931D01*
Y637984D01*
Y638138D01*
X483777D01*
Y638292D01*
Y638446D01*
X483623D01*
Y638600D01*
Y638754D01*
Y638908D01*
X483469D01*
Y639062D01*
Y639217D01*
Y639371D01*
X483315D01*
Y639525D01*
Y639679D01*
Y639833D01*
X483161D01*
Y639987D01*
Y640141D01*
X483007D01*
Y640295D01*
Y640450D01*
X482852D01*
Y640604D01*
Y640758D01*
Y640912D01*
X482698D01*
Y641066D01*
X482544D01*
Y641220D01*
Y641374D01*
X482390D01*
Y641528D01*
Y641683D01*
Y641837D01*
X482236D01*
Y641991D01*
Y642145D01*
Y642299D01*
X482082D01*
Y642453D01*
Y642607D01*
Y642762D01*
X481928D01*
Y642916D01*
Y643070D01*
Y643224D01*
X481773D01*
Y643378D01*
Y643532D01*
Y643686D01*
X481619D01*
Y643840D01*
X481465D01*
Y643995D01*
Y644149D01*
X481311D01*
Y644303D01*
Y644457D01*
Y644611D01*
X481157D01*
Y644765D01*
Y644919D01*
X481003D01*
Y645073D01*
Y645228D01*
X480849D01*
Y645382D01*
Y645536D01*
Y645690D01*
X480695D01*
Y645844D01*
Y645998D01*
X480541D01*
Y646152D01*
Y646307D01*
Y646461D01*
X480386D01*
Y646615D01*
X480232D01*
Y646769D01*
Y646923D01*
X480078D01*
Y647077D01*
Y647231D01*
Y647385D01*
X479924D01*
Y647540D01*
Y647694D01*
Y647848D01*
X479770D01*
Y648002D01*
Y648156D01*
Y648310D01*
X479616D01*
Y648464D01*
Y648618D01*
Y648773D01*
X479462D01*
Y648927D01*
Y649081D01*
X479307D01*
Y649235D01*
Y649389D01*
X479153D01*
Y649543D01*
Y649697D01*
Y649852D01*
X478999D01*
Y650006D01*
X478845D01*
Y650160D01*
Y650314D01*
X478999D01*
Y650468D01*
X479307D01*
Y650622D01*
X479616D01*
Y650776D01*
Y650930D01*
X479924D01*
Y651085D01*
X480078D01*
Y651239D01*
X480232D01*
Y651393D01*
X480541D01*
Y651547D01*
X480695D01*
Y651701D01*
X480849D01*
Y651855D01*
X481157D01*
Y652009D01*
Y652163D01*
X481311D01*
Y652318D01*
X481465D01*
Y652472D01*
X481619D01*
Y652626D01*
X481773D01*
Y652780D01*
X481928D01*
Y652934D01*
X482082D01*
Y653088D01*
X482236D01*
Y653242D01*
Y653397D01*
X482390D01*
Y653551D01*
Y653705D01*
X482544D01*
Y653859D01*
X482698D01*
Y654013D01*
Y654167D01*
X482852D01*
Y654321D01*
X483007D01*
Y654475D01*
Y654630D01*
X483161D01*
Y654784D01*
Y654938D01*
X483315D01*
Y655092D01*
Y655246D01*
Y655400D01*
X483469D01*
Y655554D01*
Y655708D01*
Y655863D01*
Y656017D01*
X483623D01*
Y656171D01*
Y656325D01*
Y656479D01*
Y656633D01*
Y656787D01*
Y656942D01*
X483777D01*
Y657096D01*
Y657250D01*
Y657404D01*
Y657558D01*
Y657712D01*
Y657866D01*
Y658020D01*
Y658175D01*
Y658329D01*
Y658483D01*
Y658637D01*
Y658791D01*
Y658945D01*
Y659099D01*
Y659253D01*
X483623D01*
Y659408D01*
Y659562D01*
Y659716D01*
Y659870D01*
Y660024D01*
Y660178D01*
X483469D01*
Y660332D01*
Y660487D01*
Y660641D01*
Y660795D01*
X483315D01*
Y660949D01*
Y661103D01*
Y661257D01*
X483161D01*
Y661411D01*
Y661565D01*
X483007D01*
Y661720D01*
Y661874D01*
X482852D01*
Y662028D01*
X482698D01*
Y662182D01*
Y662336D01*
X482544D01*
Y662490D01*
X482390D01*
Y662644D01*
Y662798D01*
X482236D01*
Y662953D01*
Y663107D01*
X482082D01*
Y663261D01*
X481928D01*
Y663415D01*
Y663569D01*
X481773D01*
Y663723D01*
X481619D01*
Y663877D01*
X481465D01*
Y664032D01*
X481311D01*
Y664186D01*
X481003D01*
Y664340D01*
X480849D01*
Y664494D01*
X480695D01*
Y664648D01*
X480386D01*
Y664802D01*
X480232D01*
Y664956D01*
Y665110D01*
X480078D01*
Y664956D01*
X479924D01*
Y665110D01*
X479770D01*
Y665265D01*
X479616D01*
Y665419D01*
X479307D01*
Y665573D01*
X478999D01*
Y665727D01*
X478691D01*
Y665881D01*
X478228D01*
Y666035D01*
X477612D01*
Y666189D01*
X477304D01*
Y666344D01*
X476533D01*
Y666498D01*
X474375D01*
Y666344D01*
X473605D01*
Y666189D01*
X473296D01*
Y666035D01*
X472680D01*
Y665881D01*
X472217D01*
Y665727D01*
X471909D01*
Y665573D01*
X471601D01*
Y665419D01*
X471293D01*
Y665265D01*
X471138D01*
Y665110D01*
X470830D01*
Y664956D01*
X470676D01*
Y664802D01*
X470522D01*
Y664648D01*
X470214D01*
Y664494D01*
X470060D01*
Y664340D01*
X469906D01*
Y664186D01*
X469751D01*
Y664032D01*
X469597D01*
Y663877D01*
X469443D01*
Y663723D01*
X469289D01*
Y663569D01*
X469135D01*
Y663415D01*
Y663261D01*
X468827D01*
Y663107D01*
X468672D01*
Y662953D01*
Y662798D01*
X468518D01*
Y662644D01*
X468364D01*
Y662490D01*
Y662336D01*
X468210D01*
Y662182D01*
Y662028D01*
X468056D01*
Y661874D01*
Y661720D01*
X467902D01*
Y661565D01*
Y661411D01*
Y661257D01*
X467748D01*
Y661103D01*
Y660949D01*
Y660795D01*
X467593D01*
Y660641D01*
X467439D01*
Y660487D01*
Y660332D01*
Y660178D01*
X467285D01*
Y660024D01*
Y659870D01*
Y659716D01*
Y659562D01*
Y659408D01*
X467131D01*
Y659253D01*
Y659099D01*
Y658945D01*
Y658791D01*
Y658637D01*
Y658483D01*
Y658329D01*
Y658175D01*
Y658020D01*
Y657866D01*
Y657712D01*
Y657558D01*
Y657404D01*
Y657250D01*
Y657096D01*
Y656942D01*
Y656787D01*
X467285D01*
Y656633D01*
Y656479D01*
Y656325D01*
Y656171D01*
Y656017D01*
X467439D01*
Y655863D01*
Y655708D01*
X467593D01*
Y655554D01*
Y655400D01*
Y655246D01*
X467748D01*
Y655092D01*
Y654938D01*
X467902D01*
Y654784D01*
Y654630D01*
Y654475D01*
X468056D01*
Y654321D01*
Y654167D01*
X468210D01*
Y654013D01*
Y653859D01*
X468364D01*
Y653705D01*
Y653551D01*
X468518D01*
Y653397D01*
Y653242D01*
X468672D01*
Y653088D01*
X468827D01*
Y652934D01*
X468981D01*
Y652780D01*
X469135D01*
Y652626D01*
X469289D01*
Y652472D01*
X469443D01*
Y652318D01*
X469597D01*
Y652163D01*
X469751D01*
Y652009D01*
X469906D01*
Y651855D01*
X470060D01*
Y651701D01*
X470214D01*
Y651547D01*
X470368D01*
Y651393D01*
X470676D01*
Y651239D01*
X470830D01*
Y651085D01*
X470984D01*
Y650930D01*
X471138D01*
Y650776D01*
X471447D01*
Y650622D01*
X471601D01*
Y650468D01*
X472063D01*
Y650314D01*
Y650160D01*
Y650006D01*
X471909D01*
Y649852D01*
Y649697D01*
Y649543D01*
X471755D01*
Y649389D01*
Y649235D01*
X471601D01*
Y649081D01*
Y648927D01*
Y648773D01*
X471447D01*
Y648618D01*
Y648464D01*
X471293D01*
Y648310D01*
X471138D01*
Y648156D01*
Y648002D01*
Y647848D01*
X470984D01*
Y647694D01*
Y647540D01*
Y647385D01*
X470830D01*
Y647231D01*
Y647077D01*
X470676D01*
Y646923D01*
Y646769D01*
X470522D01*
Y646615D01*
Y646461D01*
Y646307D01*
X470368D01*
Y646152D01*
Y645998D01*
Y645844D01*
X470214D01*
Y645690D01*
Y645536D01*
X470060D01*
Y645382D01*
X469906D01*
Y645228D01*
Y645073D01*
Y644919D01*
X469751D01*
Y644765D01*
Y644611D01*
Y644457D01*
X469597D01*
Y644303D01*
Y644149D01*
Y643995D01*
X469443D01*
Y643840D01*
Y643686D01*
Y643532D01*
X469289D01*
Y643378D01*
Y643224D01*
X469135D01*
Y643070D01*
Y642916D01*
X468981D01*
Y642762D01*
Y642607D01*
X468827D01*
Y642453D01*
Y642299D01*
X468672D01*
Y642145D01*
Y641991D01*
X468518D01*
Y641837D01*
Y641683D01*
X468364D01*
Y641528D01*
Y641374D01*
Y641220D01*
X468210D01*
Y641066D01*
Y640912D01*
Y640758D01*
X468056D01*
Y640604D01*
Y640450D01*
Y640295D01*
X467902D01*
Y640141D01*
Y639987D01*
Y639833D01*
X467748D01*
Y639679D01*
Y639525D01*
X467593D01*
Y639371D01*
X467439D01*
Y639217D01*
Y639062D01*
X467285D01*
Y638908D01*
Y638754D01*
Y638600D01*
X467131D01*
Y638446D01*
Y638292D01*
Y638138D01*
X466977D01*
Y637984D01*
Y637829D01*
X466515D01*
Y637984D01*
X466206D01*
Y638138D01*
X466052D01*
Y638292D01*
X465744D01*
Y638446D01*
X465436D01*
Y638600D01*
X465127D01*
Y638754D01*
X464819D01*
Y638908D01*
X464357D01*
Y639062D01*
X463586D01*
Y638908D01*
X463278D01*
Y638754D01*
X462970D01*
Y638600D01*
X462816D01*
Y638446D01*
X462507D01*
Y638292D01*
X462199D01*
Y638138D01*
X462045D01*
Y637984D01*
X461891D01*
Y637829D01*
X461582D01*
Y637675D01*
X461428D01*
Y637521D01*
X461120D01*
Y637367D01*
X460966D01*
Y637213D01*
X460658D01*
Y637059D01*
X460504D01*
Y636905D01*
X460349D01*
Y636750D01*
X460195D01*
Y636596D01*
X459887D01*
Y636442D01*
X459733D01*
Y636288D01*
X459425D01*
Y636134D01*
X459116D01*
Y635980D01*
X458962D01*
Y635826D01*
X458654D01*
Y635672D01*
X458346D01*
Y635517D01*
Y635363D01*
X458192D01*
Y635209D01*
X457575D01*
Y635363D01*
X457421D01*
Y635517D01*
X457267D01*
Y635672D01*
X457113D01*
Y635826D01*
X456959D01*
Y635980D01*
X456804D01*
Y636134D01*
X456650D01*
Y636288D01*
X456496D01*
Y636442D01*
X456342D01*
Y636596D01*
X456188D01*
Y636750D01*
X456034D01*
Y636905D01*
X455880D01*
Y637059D01*
X455726D01*
Y637213D01*
X455571D01*
Y637367D01*
X455417D01*
Y637521D01*
X455263D01*
Y637675D01*
X455109D01*
Y637829D01*
X454955D01*
Y637984D01*
X454801D01*
Y638138D01*
X454647D01*
Y638292D01*
X454492D01*
Y638446D01*
X454338D01*
Y638600D01*
X454184D01*
Y638754D01*
X454030D01*
Y638908D01*
X453876D01*
Y639062D01*
X453722D01*
Y639217D01*
X453568D01*
Y639371D01*
X453414D01*
Y639525D01*
X453259D01*
Y639679D01*
X453105D01*
Y639833D01*
X452951D01*
Y639987D01*
X452797D01*
Y640141D01*
X452643D01*
Y640295D01*
X452489D01*
Y640450D01*
Y640604D01*
X452643D01*
Y640758D01*
Y640912D01*
X452797D01*
Y641066D01*
X452951D01*
Y641220D01*
Y641374D01*
X453105D01*
Y641528D01*
X453259D01*
Y641683D01*
Y641837D01*
X453414D01*
Y641991D01*
X453568D01*
Y642145D01*
X453722D01*
Y642299D01*
Y642453D01*
X453876D01*
Y642607D01*
X454030D01*
Y642762D01*
Y642916D01*
X454184D01*
Y643070D01*
Y643224D01*
X454338D01*
Y643378D01*
X454492D01*
Y643532D01*
X454647D01*
Y643686D01*
Y643840D01*
X454801D01*
Y643995D01*
X454955D01*
Y644149D01*
X455109D01*
Y644303D01*
Y644457D01*
X455263D01*
Y644611D01*
X455417D01*
Y644765D01*
Y644919D01*
X455571D01*
Y645073D01*
Y645228D01*
X455726D01*
Y645382D01*
X455880D01*
Y645536D01*
Y645690D01*
X456034D01*
Y645844D01*
X456188D01*
Y645998D01*
X456342D01*
Y646152D01*
Y646307D01*
X456496D01*
Y646461D01*
Y646615D01*
Y646769D01*
Y646923D01*
Y647077D01*
Y647231D01*
Y647385D01*
X456342D01*
Y647540D01*
Y647694D01*
Y647848D01*
X456188D01*
Y648002D01*
Y648156D01*
X456034D01*
Y648310D01*
X455880D01*
Y648464D01*
Y648618D01*
Y648773D01*
X455726D01*
Y648927D01*
Y649081D01*
Y649235D01*
X455571D01*
Y649389D01*
Y649543D01*
Y649697D01*
X455417D01*
Y649852D01*
Y650006D01*
Y650160D01*
X455263D01*
Y650314D01*
Y650468D01*
Y650622D01*
X455109D01*
Y650776D01*
Y650930D01*
Y651085D01*
X454955D01*
Y651239D01*
Y651393D01*
X454801D01*
Y651547D01*
Y651701D01*
X454647D01*
Y651855D01*
X454492D01*
Y652009D01*
Y652163D01*
Y652318D01*
X454338D01*
Y652472D01*
Y652626D01*
X454184D01*
Y652780D01*
Y652934D01*
X453722D01*
Y653088D01*
X452797D01*
Y653242D01*
X451872D01*
Y653397D01*
X451102D01*
Y653551D01*
X450793D01*
Y653705D01*
X449869D01*
Y653859D01*
X448790D01*
Y654013D01*
X448019D01*
Y654167D01*
X447094D01*
Y654321D01*
X446632D01*
Y654475D01*
Y654630D01*
Y654784D01*
Y654938D01*
Y655092D01*
Y655246D01*
Y655400D01*
Y655554D01*
Y655708D01*
Y655863D01*
Y656017D01*
Y656171D01*
Y656325D01*
Y656479D01*
Y656633D01*
Y656787D01*
Y656942D01*
Y657096D01*
Y657250D01*
Y657404D01*
Y657558D01*
Y657712D01*
Y657866D01*
Y658020D01*
Y658175D01*
Y658329D01*
Y658483D01*
Y658637D01*
Y658791D01*
Y658945D01*
Y659099D01*
Y659253D01*
Y659408D01*
Y659562D01*
Y659716D01*
Y659870D01*
Y660024D01*
Y660178D01*
Y660332D01*
Y660487D01*
Y660641D01*
Y660795D01*
Y660949D01*
Y661103D01*
Y661257D01*
Y661411D01*
Y661565D01*
Y661720D01*
Y661874D01*
X446940D01*
Y662028D01*
X448019D01*
Y662182D01*
X448944D01*
Y662336D01*
X449252D01*
Y662490D01*
X450177D01*
Y662644D01*
X451102D01*
Y662798D01*
X451718D01*
Y662953D01*
X452489D01*
Y663107D01*
X453414D01*
Y663261D01*
X454184D01*
Y663415D01*
X454338D01*
Y663569D01*
Y663723D01*
X454492D01*
Y663877D01*
X454647D01*
Y664032D01*
X454801D01*
Y664186D01*
Y664340D01*
Y664494D01*
X454955D01*
Y664648D01*
X455109D01*
Y664802D01*
Y664956D01*
Y665110D01*
X455263D01*
Y665265D01*
Y665419D01*
Y665573D01*
X455417D01*
Y665727D01*
Y665881D01*
Y666035D01*
X455571D01*
Y666189D01*
Y666344D01*
Y666498D01*
X455726D01*
Y666652D01*
Y666806D01*
X455880D01*
Y666960D01*
Y667114D01*
Y667268D01*
X456034D01*
Y667422D01*
X456188D01*
Y667577D01*
Y667731D01*
X456342D01*
Y667885D01*
Y668039D01*
Y668193D01*
X456496D01*
Y668347D01*
Y668501D01*
X456650D01*
Y668655D01*
Y668810D01*
X456804D01*
Y668964D01*
Y669118D01*
Y669272D01*
Y669426D01*
Y669580D01*
X456650D01*
Y669734D01*
X456496D01*
Y669888D01*
Y670043D01*
X456342D01*
Y670197D01*
X456188D01*
Y670351D01*
X456034D01*
Y670505D01*
Y670659D01*
X455880D01*
Y670813D01*
X455726D01*
Y670967D01*
Y671122D01*
X455571D01*
Y671276D01*
X455417D01*
Y671430D01*
Y671584D01*
X455263D01*
Y671738D01*
Y671892D01*
X455109D01*
Y672046D01*
X454955D01*
Y672200D01*
Y672355D01*
X454801D01*
Y672509D01*
X454647D01*
Y672663D01*
X454492D01*
Y672817D01*
X454338D01*
Y672971D01*
Y673125D01*
X454184D01*
Y673279D01*
X454030D01*
Y673434D01*
Y673588D01*
X453876D01*
Y673742D01*
Y673896D01*
X453722D01*
Y674050D01*
X453568D01*
Y674204D01*
X453414D01*
Y674358D01*
Y674512D01*
X453259D01*
Y674667D01*
X453105D01*
Y674821D01*
Y674975D01*
X452951D01*
Y675129D01*
X452797D01*
Y675283D01*
Y675437D01*
X452643D01*
Y675591D01*
X452489D01*
Y675745D01*
Y675900D01*
X452643D01*
Y676054D01*
X452797D01*
Y676208D01*
X452951D01*
Y676362D01*
X453105D01*
Y676516D01*
X453259D01*
Y676670D01*
X453414D01*
Y676824D01*
X453568D01*
Y676979D01*
X453722D01*
Y677133D01*
X453876D01*
Y677287D01*
X454030D01*
Y677441D01*
X454184D01*
Y677595D01*
X454338D01*
Y677749D01*
X454492D01*
Y677903D01*
X454647D01*
Y678057D01*
X454801D01*
Y678212D01*
X454955D01*
Y678366D01*
X455109D01*
Y678520D01*
X455263D01*
Y678674D01*
X455417D01*
Y678828D01*
X455571D01*
Y678982D01*
X455726D01*
Y679136D01*
X455880D01*
Y679290D01*
X456034D01*
Y679445D01*
X456188D01*
Y679599D01*
X456342D01*
Y679753D01*
X456496D01*
Y679907D01*
X456650D01*
Y680061D01*
X456804D01*
Y680215D01*
X456959D01*
Y680369D01*
X457113D01*
Y680524D01*
X457267D01*
Y680678D01*
X457421D01*
Y680832D01*
X457575D01*
Y680986D01*
X458192D01*
Y680832D01*
X458500D01*
Y680678D01*
X458654D01*
Y680524D01*
X458962D01*
Y680369D01*
X459116D01*
Y680215D01*
X459271D01*
Y680061D01*
X459425D01*
Y679907D01*
X459733D01*
Y679753D01*
X460041D01*
Y679599D01*
X460195D01*
Y679445D01*
X460349D01*
Y679290D01*
X460658D01*
Y679136D01*
X460812D01*
Y678982D01*
X460966D01*
Y678828D01*
X461274D01*
Y678674D01*
X461582D01*
Y678520D01*
X461737D01*
Y678366D01*
X462045D01*
Y678212D01*
X462353D01*
Y678057D01*
X462507D01*
Y677903D01*
X462661D01*
Y677749D01*
X462816D01*
Y677595D01*
X463124D01*
Y677441D01*
X463278D01*
Y677287D01*
X463586D01*
Y677133D01*
X463740D01*
Y676979D01*
X464049D01*
Y676824D01*
X464973D01*
Y676979D01*
X465436D01*
Y677133D01*
X465898D01*
Y677287D01*
X466361D01*
Y677441D01*
X466823D01*
Y677595D01*
X466977D01*
Y677749D01*
X467439D01*
Y677903D01*
X467748D01*
Y678057D01*
X468056D01*
Y678212D01*
X468364D01*
Y678366D01*
X468827D01*
Y678520D01*
X469289D01*
Y678674D01*
X469751D01*
Y678828D01*
X469906D01*
Y678982D01*
X470060D01*
Y679136D01*
X470214D01*
Y679290D01*
X470368D01*
Y679445D01*
Y679599D01*
Y679753D01*
Y679907D01*
X470522D01*
Y680061D01*
Y680215D01*
Y680369D01*
Y680524D01*
Y680678D01*
Y680832D01*
Y680986D01*
X470676D01*
Y681140D01*
Y681294D01*
Y681448D01*
Y681602D01*
Y681757D01*
Y681911D01*
X470830D01*
Y682065D01*
Y682219D01*
Y682373D01*
Y682527D01*
Y682681D01*
Y682835D01*
Y682990D01*
X470984D01*
Y683144D01*
Y683298D01*
Y683452D01*
Y683606D01*
Y683760D01*
Y683914D01*
X471138D01*
Y684069D01*
Y684223D01*
Y684377D01*
Y684531D01*
Y684685D01*
X471293D01*
Y684839D01*
Y684993D01*
X471447D01*
Y685147D01*
Y685302D01*
Y685456D01*
Y685610D01*
Y685764D01*
X471601D01*
Y685918D01*
Y686072D01*
Y686226D01*
Y686380D01*
Y686535D01*
Y686689D01*
X471755D01*
Y686843D01*
X479307D01*
Y686689D01*
D02*
G37*
D10*
X452117Y895345D02*
X447038D01*
X449577D01*
Y882649D01*
X447038Y880110D01*
X444499D01*
X441960Y882649D01*
X457195Y880110D02*
X462273D01*
X459734D01*
Y895345D01*
X457195Y892806D01*
X494027Y864865D02*
X488948D01*
X491488D01*
Y852169D01*
X488948Y849630D01*
X486409D01*
X483870Y852169D01*
X509262Y849630D02*
X499105D01*
X509262Y859787D01*
Y862326D01*
X506723Y864865D01*
X501644D01*
X499105Y862326D01*
D12*
X450596Y752540D02*
X461010D01*
X450596D02*
Y776540D01*
X461010D01*
Y776478D02*
Y777494D01*
Y805180D02*
X511810D01*
Y723900D02*
Y805180D01*
X461010Y723900D02*
X511810D01*
X461010D02*
Y805180D01*
X432308Y646938D02*
Y896366D01*
X424688Y639318D02*
X432308Y646938D01*
X379984Y896366D02*
X432308D01*
X379984Y639318D02*
X424688D01*
X379984D02*
Y896366D01*
M02*
